<svg xmlns="http://www.w3.org/2000/svg" width="500" height="500" viewBox="0 0 500 500">  <!-- 背景圆 -->  <circle cx="250" cy="250" r="240" fill="#f5f5f5" stroke="#dedede" stroke-width="2" />  <!-- 主十字 -->  <g filter="url(#shadow)">    <line x1="250" y1="180" x2="250" y2="320" stroke="#2c4a72" stroke-width="12" stroke-linecap="round" />    <line x1="180" y1="250" x2="320" y2="250" stroke="#2c4a72" stroke-width="12" stroke-linecap="round" />  </g>  <!-- 左上十字 -->  <g filter="url(#shadow)">    <line x1="180" y1="150" x2="180" y2="210" stroke="#2c4a72" stroke-width="10" stroke-linecap="round" />    <line x1="150" y1="180" x2="210" y2="180" stroke="#2c4a72" stroke-width="10" stroke-linecap="round" />  </g>  <!-- 右上十字 -->  <g filter="url(#shadow)">    <line x1="320" y1="150" x2="320" y2="210" stroke="#2c4a72" stroke-width="10" stroke-linecap="round" />    <line x1="290" y1="180" x2="350" y2="180" stroke="#2c4a72" stroke-width="10" stroke-linecap="round" />  </g>  <!-- 左下十字 -->  <g filter="url(#shadow)">    <line x1="180" y1="290" x2="180" y2="350" stroke="#2c4a72" stroke-width="10" stroke-linecap="round" />    <line x1="150" y1="320" x2="210" y2="320" stroke="#2c4a72" stroke-width="10" stroke-linecap="round" />  </g>  <!-- 右下十字 -->  <g filter="url(#shadow)">    <line x1="320" y1="290" x2="320" y2="350" stroke="#2c4a72" stroke-width="10" stroke-linecap="round" />    <line x1="290" y1="320" x2="350" y2="320" stroke="#2c4a72" stroke-width="10" stroke-linecap="round" />  </g>  <!-- 调整放大镜 -->  <g filter="url(#shadow)">    <!-- 放大镜玻璃 -->    <circle cx="380" cy="380" r="40" fill="white" stroke="#0071b3" stroke-width="6" />    <circle cx="380" cy="380" r="37" fill="url(#glassGradient)" opacity="0.8" />    <!-- 放大镜手柄 -->    <rect x="390" y="400" width="12" height="60" fill="#2c4a72" rx="5" transform="rotate(45 380 380)" />  </g>  <!-- 阴影定义 -->  <defs>    <filter id="shadow" x="-50%" y="-50%" width="200%" height="200%">      <feDropShadow dx="3" dy="3" stdDeviation="3" flood-color="rgba(0,0,0,0.2)" />    </filter>    <!-- 玻璃质感 -->    <radialGradient id="glassGradient" cx="50%" cy="50%" r="50%">      <stop offset="0%" stop-color="#cce7f8" />      <stop offset="100%" stop-color="white" />    </radialGradient>  </defs></svg>