<svg width="200" height="200" viewBox="0 0 200 200" fill="none" xmlns="http://www.w3.org/2000/svg">  <defs>    <filter id="dropShadow" x="-10%" y="-10%" width="120%" height="120%">      <feGaussianBlur in="SourceAlpha" stdDeviation="3"/>      <feOffset dx="2" dy="4" result="offsetblur"/>      <feComponentTransfer>        <feFuncA type="linear" slope="0.2"/>      </feComponentTransfer>      <feMerge>        <feMergeNode/>        <feMergeNode in="SourceGraphic"/>      </feMerge>    </filter>  </defs>  <rect x="25" y="35" width="150" height="110" rx="8" fill="#FFFFFF" stroke="#333333" stroke-width="2" filter="url(#dropShadow)"/>    <path d="M25 60 L175 60" stroke="#E5E5E5" stroke-width="2"/>  <circle cx="40" cy="48" r="3" fill="#FF5F56"/>  <circle cx="52" cy="48" r="3" fill="#FFBD2E"/>  <circle cx="64" cy="48" r="3" fill="#27C93F"/>  <rect x="35" y="70" width="30" height="65" rx="2" fill="#F5F5F5"/>  <rect x="40" y="78" width="20" height="4" rx="1" fill="#D1D1D1"/>  <rect x="40" y="86" width="16" height="4" rx="1" fill="#D1D1D1"/>  <rect x="40" y="94" width="18" height="4" rx="1" fill="#D1D1D1"/>    <rect x="75" y="95" width="12" height="40" rx="1" fill="#4E79A7"/>  <rect x="92" y="80" width="12" height="55" rx="1" fill="#4E79A7"/>  <rect x="109" y="105" width="12" height="30" rx="1" fill="#4E79A7"/>    <polyline points="75,90 92,70 109,95 130,65" fill="none" stroke="#F28E2B" stroke-width="3" stroke-linecap="round" stroke-linejoin="round"/>  <circle cx="92" cy="70" r="2.5" fill="#F28E2B"/>  <circle cx="130" cy="65" r="2.5" fill="#F28E2B"/>  <circle cx="160" cy="135" r="22" fill="#333333" stroke="#FFFFFF" stroke-width="2"/>    <g stroke="#FFFFFF" stroke-width="2" stroke-linecap="round" fill="#FFFFFF">    <path d="M151 148 L164 135" stroke-width="3"/>    <path d="M166 129 L168 134 L173 135 L168 137 L166 142 L164 137 L159 135 L164 134 Z" stroke="none"/>    <circle cx="173" cy="126" r="1.5" stroke="none"/>    <circle cx="157" cy="128" r="1" stroke="none"/>    <circle cx="176" cy="140" r="1" stroke="none"/>  </g></svg>